<svg width="164" height="83" viewBox="0 0 164 83" fill="none" xmlns="http://www.w3.org/2000/svg">
<path d="M1 0.81543H25.3582C35.0177 0.81543 41.9302 2.67093 46.0961 6.39993C46.4274 6.69813 46.7423 7.00973 47.0422 7.33433H40.0088C36.5351 5.61183 31.4662 4.74463 24.7759 4.74463H5.4751V7.33433H1V0.81543ZM44.7207 33.7016C41.5265 36.0984 37.351 37.6475 32.2344 38.3622V38.6895C39.5121 39.5276 45.0399 41.8705 48.8025 45.7172H42.4894C42.192 45.4976 41.8842 45.2832 41.5665 45.0746C36.9823 42.0548 30.7427 40.545 22.8477 40.545H5.4751V45.7172H1V33.7016H5.4751V36.725H22.4839C28.8462 36.725 34.0153 35.7143 38.0082 33.7016H44.7207ZM49.8199 72.0846C48.6784 73.5948 47.2919 74.9421 45.6593 76.1271C40.966 79.4743 34.7082 81.1478 26.8499 81.1478H1V72.0846H5.4751V77.2184H26.3221C34.4193 77.2184 40.3604 75.5059 44.1462 72.0846H49.8199Z" fill="#ED3237" stroke="#ED3237" stroke-width="1.0583" stroke-miterlimit="22.9256"/>
<path d="M89.3668 0.81543V3.07353H64.4655V21.2634H83.2722V23.5214H64.4655V44.722H89.7955V46.9801H61.8939V0.81543H89.3668Z" fill="#ED3237"/>
<path d="M124.743 10.2763L122.171 11.2903C120.143 5.3106 116.254 2.3208 110.504 2.3208C106.866 2.3208 104.033 3.2721 102.016 5.1643C100.26 6.816 99.3815 8.9591 99.3815 11.5935C99.3815 14.5624 100.333 16.8204 102.235 18.3676C103.866 19.6953 106.542 20.8138 110.254 21.7129L111.822 22.0788C117.634 23.4691 121.554 25.3404 123.582 27.7134C125.109 29.5115 125.872 32.0414 125.872 35.303C125.872 39.3278 124.366 42.4744 121.345 44.7638C118.648 46.7814 115.115 47.7955 110.745 47.7955C106.595 47.7955 103.124 46.7083 100.333 44.5234C97.8866 42.6103 96.0885 39.955 94.9386 36.5679L97.573 35.5016C98.5138 38.9723 100.322 41.5649 102.999 43.3003C105.204 44.7534 107.786 45.4747 110.745 45.4747C115.073 45.4747 118.324 44.4189 120.488 42.2967C122.244 40.5613 123.122 38.2719 123.122 35.4389C123.122 32.3341 122.202 29.9924 120.363 28.4243C118.585 26.8876 115.522 25.6122 111.174 24.5877L109.856 24.2845C104.629 23.0196 101.033 21.2634 99.0783 19.0158C97.4789 17.1968 96.6844 14.7296 96.6844 11.6039C96.6844 8.2168 98.0016 5.4152 100.636 3.1885C103.145 1.0663 106.438 0 110.504 0C117.32 0 122.067 3.4289 124.743 10.2763Z" fill="#ED3237"/>
<path d="M163.914 0.81543V3.07353H148.567V46.9801H145.996V3.07353H130.743V0.81543H163.914Z" fill="#ED3237"/>
<path d="M80.2193 59.752L78.638 60.3755C77.3911 56.6988 75 54.8605 71.4648 54.8605C69.2279 54.8605 67.486 55.4454 66.2455 56.6088C65.1657 57.6244 64.6257 58.9421 64.6257 60.5619C64.6257 62.3873 65.2107 63.7757 66.3805 64.727C67.3832 65.5433 69.0287 66.2311 71.3105 66.7838L72.2747 67.0088C75.8484 67.8637 78.2588 69.0142 79.5058 70.4733C80.4442 71.5789 80.9134 73.1344 80.9134 75.1398C80.9134 77.6145 79.9879 79.5492 78.1303 80.9568C76.4719 82.1974 74.2994 82.8209 71.6126 82.8209C69.0608 82.8209 66.9268 82.1524 65.2107 80.809C63.7066 79.6327 62.601 78.0001 61.894 75.9176L63.5137 75.2619C64.0922 77.3959 65.2042 78.99 66.8497 80.057C68.2059 80.9504 69.7936 81.3939 71.6126 81.3939C74.2737 81.3939 76.2727 80.7447 77.6032 79.4399C78.683 78.3729 79.223 76.9653 79.223 75.2234C79.223 73.3144 78.6573 71.8746 77.5261 70.9104C76.4334 69.9655 74.55 69.1814 71.8761 68.5515L71.0663 68.365C67.8524 67.5873 65.6413 66.5075 64.4393 65.1255C63.4559 64.0071 62.9674 62.4902 62.9674 60.5683C62.9674 58.4857 63.7773 56.7631 65.3971 55.394C66.9397 54.0892 68.9644 53.4336 71.4648 53.4336C75.6556 53.4336 78.5738 55.5419 80.2193 59.752ZM113.585 53.9349V82.3195H112.004V63.0301L112.081 55.2847H111.818C110.834 58.0229 109.883 60.5683 108.951 62.9144L101.328 82.3195H99.2709L91.6476 62.9144C90.6321 60.3176 89.6744 57.7723 88.7873 55.2847H88.5238L88.5945 63.0301V82.3195H87.0519V53.9349H89.7451L97.2783 73.0765C98.2039 75.3969 99.1809 78.0323 100.196 80.9697H100.479C101.495 77.9423 102.433 75.3519 103.282 73.1858L110.853 53.9349H113.585ZM148.14 53.9349V82.3195H146.559V63.0301L146.636 55.2847H146.373C145.389 58.0229 144.438 60.5683 143.506 62.9144L135.883 82.3195H133.826L126.203 62.9144C125.187 60.3176 124.229 57.7723 123.342 55.2847H123.079L123.15 63.0301V82.3195H121.607V53.9349H124.3L131.833 73.0765C132.759 75.3969 133.736 78.0323 134.751 80.9697H135.034C136.05 77.9423 136.988 75.3519 137.837 73.1858L145.409 53.9349H148.14Z" fill="#FEFEFE"/>
</svg>
