<svg width="40" height="40" viewBox="0 0 40 40" fill="none" xmlns="http://www.w3.org/2000/svg">
<path fill-rule="evenodd" clip-rule="evenodd" d="M11.0264 1H29.1153C34.6299 1 39.1417 5.5118 39.1417 11.0264V29.1153C39.1417 34.6299 34.6299 39.1417 29.1153 39.1417H11.0264C5.5118 39.1417 1 34.6299 1 29.1153V11.0264C1 5.5118 5.5118 1 11.0264 1Z" stroke="white" stroke-width="1.6154" stroke-miterlimit="22.9256" stroke-linejoin="round"/>
<path fill-rule="evenodd" clip-rule="evenodd" d="M20.0709 10.123C25.565 10.123 30.019 14.577 30.019 20.0712C30.019 25.5653 25.565 30.0193 20.0709 30.0193C14.5767 30.0193 10.1227 25.5653 10.1227 20.0712C10.1227 14.577 14.5767 10.123 20.0709 10.123Z" stroke="white" stroke-width="1.6154" stroke-miterlimit="22.9256" stroke-linejoin="round"/>
<path fill-rule="evenodd" clip-rule="evenodd" d="M32.014 5.4375C33.7489 5.4375 35.1553 6.8439 35.1553 8.5788C35.1553 10.3137 33.7489 11.7201 32.014 11.7201C30.2792 11.7201 28.8728 10.3137 28.8728 8.5788C28.8728 6.8439 30.2792 5.4375 32.014 5.4375Z" stroke="white" stroke-width="1.6154" stroke-miterlimit="22.9256" stroke-linejoin="round"/>
<path d="M1 14.6924H11.8301" stroke="white" stroke-width="1.6154" stroke-miterlimit="22.9256" stroke-linejoin="round"/>
<path d="M28.3116 14.6924H39.1417" stroke="white" stroke-width="1.6154" stroke-miterlimit="22.9256" stroke-linejoin="round"/>
</svg>
