<svg width="23" height="32" viewBox="0 0 23 32" fill="none" xmlns="http://www.w3.org/2000/svg">
<path d="M21.6885 28.0857C22.6265 28.8253 22.7844 30.1896 22.0412 31.1325C21.2981 32.0753 19.9346 32.2404 18.9965 31.5008L21.6885 28.0857ZM4.25232 14.3405L21.6885 28.0857L18.9965 31.5008L1.56033 17.7556L4.25232 14.3405ZM1.56033 17.7556C0.622303 17.0159 0.464473 15.6517 1.20763 14.7088C1.95078 13.7659 3.31429 13.6009 4.25232 14.3405L1.56033 17.7556Z" fill="#CBC0C7"/>
<path d="M22.0842 4.65171L19.509 1.14773C20.4715 0.440211 21.8287 0.651217 22.5396 1.61864C23.2505 2.58606 23.0467 3.94419 22.0842 4.65171ZM4.19391 17.8005L1.61874 14.2965L19.509 1.14773L22.0842 4.65171L4.19391 17.8005ZM1.61874 14.2965L4.19391 17.8005C3.23145 18.508 1.87429 18.297 1.16339 17.3296C0.452488 16.3622 0.656284 15.004 1.61874 14.2965Z" fill="#CBC0C7"/>
</svg>
