<svg width="56" height="56" viewBox="0 0 56 56" fill="none" xmlns="http://www.w3.org/2000/svg">
<circle cx="28" cy="28" r="28" transform="rotate(-180 28 28)" fill="url(#paint0_linear)"/>
<path d="M34.6885 40.0857C35.6265 40.8253 35.7844 42.1896 35.0412 43.1325C34.2981 44.0753 32.9346 44.2404 31.9965 43.5008L34.6885 40.0857ZM17.2523 26.3405L34.6885 40.0857L31.9965 43.5008L14.5603 29.7556L17.2523 26.3405ZM14.5603 29.7556C13.6223 29.0159 13.4645 27.6517 14.2076 26.7088C14.9508 25.7659 16.3143 25.6009 17.2523 26.3405L14.5603 29.7556Z" fill="white"/>
<path d="M35.0842 16.652L32.509 13.148C33.4715 12.4405 34.8287 12.6515 35.5396 13.6189C36.2505 14.5863 36.0467 15.9444 35.0842 16.652ZM17.1939 29.8007L14.6187 26.2967L32.509 13.148L35.0842 16.652L17.1939 29.8007ZM14.6187 26.2967L17.1939 29.8007C16.2314 30.5082 14.8743 30.2972 14.1634 29.3298C13.4525 28.3624 13.6563 27.0043 14.6187 26.2967Z" fill="white"/>
<defs>
<linearGradient id="paint0_linear" x1="28" y1="-1.90735e-06" x2="28" y2="56" gradientUnits="userSpaceOnUse">
<stop stop-color="#FF2F34"/>
<stop offset="1" stop-color="#F25D03"/>
</linearGradient>
</defs>
</svg>
