<svg width="56" height="56" viewBox="0 0 56 56" fill="none" xmlns="http://www.w3.org/2000/svg">
<circle cx="28" cy="28" r="28" fill="url(#paint0_linear)"/>
<path d="M21.3115 15.9143C20.3735 15.1747 20.2156 13.8104 20.9588 12.8675C21.7019 11.9247 23.0654 11.7596 24.0035 12.4992L21.3115 15.9143ZM38.7477 29.6595L21.3115 15.9143L24.0035 12.4992L41.4397 26.2444L38.7477 29.6595ZM41.4397 26.2444C42.3777 26.9841 42.5355 28.3483 41.7924 29.2912C41.0492 30.2341 39.6857 30.3991 38.7477 29.6595L41.4397 26.2444Z" fill="white"/>
<path d="M20.9158 39.348L23.491 42.852C22.5285 43.5595 21.1713 43.3485 20.4604 42.3811C19.7495 41.4137 19.9533 40.0556 20.9158 39.348ZM38.8061 26.1993L41.3813 29.7033L23.491 42.852L20.9158 39.348L38.8061 26.1993ZM41.3813 29.7033L38.8061 26.1993C39.7686 25.4918 41.1257 25.7028 41.8366 26.6702C42.5475 27.6376 42.3437 28.9957 41.3813 29.7033Z" fill="white"/>
<defs>
<linearGradient id="paint0_linear" x1="28" y1="0" x2="28" y2="56" gradientUnits="userSpaceOnUse">
<stop stop-color="#FF2F34"/>
<stop offset="1" stop-color="#F25D03"/>
</linearGradient>
</defs>
</svg>
