<svg width="23" height="32" viewBox="0 0 23 32" fill="none" xmlns="http://www.w3.org/2000/svg">
<path d="M1.31148 3.91427C0.373453 3.17466 0.215624 1.8104 0.958778 0.867536C1.70193 -0.0753328 3.06544 -0.240388 4.00347 0.499224L1.31148 3.91427ZM18.7477 17.6595L1.31148 3.91427L4.00347 0.499224L21.4397 14.2444L18.7477 17.6595ZM21.4397 14.2444C22.3777 14.9841 22.5355 16.3483 21.7924 17.2912C21.0492 18.2341 19.6857 18.3991 18.7477 17.6595L21.4397 14.2444Z" fill="#CBC0C7"/>
<path d="M0.915792 27.3483L3.49096 30.8523C2.5285 31.5598 1.17134 31.3488 0.460439 30.3814C-0.250461 29.4139 -0.0466665 28.0558 0.915792 27.3483ZM18.8061 14.1995L21.3813 17.7035L3.49096 30.8523L0.915792 27.3483L18.8061 14.1995ZM21.3813 17.7035L18.8061 14.1995C19.7686 13.492 21.1257 13.703 21.8366 14.6704C22.5475 15.6378 22.3437 16.996 21.3813 17.7035Z" fill="#CBC0C7"/>
</svg>
