<svg width="204" height="82" viewBox="0 0 204 82" fill="none" xmlns="http://www.w3.org/2000/svg">
<path fill-rule="evenodd" clip-rule="evenodd" d="M0 23V0L20.6985 18H199C201.761 18 204 20.2386 204 23V77C204 79.7614 201.761 82 199 82H5C2.23857 82 0 79.7614 0 77V40.5V23Z" fill="url(#paint0_linear)"/>
<path d="M29.6353 50.1914H33.019C34.6304 50.1914 35.8242 49.7886 36.6006 48.9829C37.377 48.1772 37.7651 47.1079 37.7651 45.7749C37.7651 44.4858 37.377 43.4824 36.6006 42.7646C35.8389 42.0469 34.7842 41.688 33.4365 41.688C32.2207 41.688 31.2026 42.0249 30.3823 42.6987C29.562 43.3579 29.1519 44.2222 29.1519 45.2915H22.8018C22.8018 43.6216 23.2485 42.1274 24.1421 40.8091C25.0503 39.4761 26.3101 38.436 27.9214 37.689C29.5474 36.9419 31.3345 36.5684 33.2827 36.5684C36.6665 36.5684 39.3179 37.3813 41.2368 39.0073C43.1558 40.6187 44.1152 42.8452 44.1152 45.687C44.1152 47.1519 43.6685 48.4995 42.7749 49.73C41.8813 50.9604 40.7095 51.9053 39.2593 52.5645C41.061 53.209 42.4014 54.1758 43.2803 55.4648C44.1738 56.7539 44.6206 58.2773 44.6206 60.0352C44.6206 62.877 43.5806 65.1548 41.5005 66.8687C39.4351 68.5825 36.6958 69.4395 33.2827 69.4395C30.0894 69.4395 27.4746 68.5972 25.4385 66.9126C23.417 65.228 22.4062 63.0015 22.4062 60.2329H28.7563C28.7563 61.4341 29.2031 62.4155 30.0967 63.1772C31.0049 63.939 32.1182 64.3198 33.4365 64.3198C34.9453 64.3198 36.1245 63.9243 36.9741 63.1333C37.8384 62.3276 38.2705 61.2656 38.2705 59.9473C38.2705 56.7539 36.5127 55.1572 32.9971 55.1572H29.6353V50.1914ZM70.5483 55.7725C70.5483 60.1963 69.6328 63.5801 67.8018 65.9238C65.9707 68.2676 63.29 69.4395 59.7598 69.4395C56.2734 69.4395 53.6074 68.2896 51.7617 65.9897C49.916 63.6899 48.9712 60.394 48.9272 56.1021V50.2134C48.9272 45.7456 49.8501 42.3545 51.6958 40.04C53.5562 37.7256 56.2295 36.5684 59.7158 36.5684C63.2021 36.5684 65.8682 37.7183 67.7139 40.0181C69.5596 42.3032 70.5044 45.5918 70.5483 49.8838V55.7725ZM64.1982 49.3125C64.1982 46.6611 63.832 44.7349 63.0996 43.5337C62.3818 42.3179 61.2539 41.71 59.7158 41.71C58.2217 41.71 57.1157 42.2886 56.3979 43.4458C55.6948 44.5884 55.3213 46.3828 55.2773 48.8291V56.6074C55.2773 59.2148 55.6289 61.1558 56.332 62.4302C57.0498 63.6899 58.1924 64.3198 59.7598 64.3198C61.3125 64.3198 62.4331 63.7119 63.1216 62.4961C63.8101 61.2803 64.1689 59.4199 64.1982 56.915V49.3125ZM107.594 55.7725C107.594 60.1963 106.679 63.5801 104.848 65.9238C103.017 68.2676 100.336 69.4395 96.8057 69.4395C93.3193 69.4395 90.6533 68.2896 88.8076 65.9897C86.9619 63.6899 86.0171 60.394 85.9731 56.1021V50.2134C85.9731 45.7456 86.896 42.3545 88.7417 40.04C90.6021 37.7256 93.2754 36.5684 96.7617 36.5684C100.248 36.5684 102.914 37.7183 104.76 40.0181C106.605 42.3032 107.55 45.5918 107.594 49.8838V55.7725ZM101.244 49.3125C101.244 46.6611 100.878 44.7349 100.146 43.5337C99.4277 42.3179 98.2998 41.71 96.7617 41.71C95.2676 41.71 94.1616 42.2886 93.4438 43.4458C92.7407 44.5884 92.3672 46.3828 92.3232 48.8291V56.6074C92.3232 59.2148 92.6748 61.1558 93.3779 62.4302C94.0957 63.6899 95.2383 64.3198 96.8057 64.3198C98.3584 64.3198 99.479 63.7119 100.167 62.4961C100.856 61.2803 101.215 59.4199 101.244 56.915V49.3125ZM133.434 55.7725C133.434 60.1963 132.519 63.5801 130.688 65.9238C128.856 68.2676 126.176 69.4395 122.646 69.4395C119.159 69.4395 116.493 68.2896 114.647 65.9897C112.802 63.6899 111.857 60.394 111.813 56.1021V50.2134C111.813 45.7456 112.736 42.3545 114.582 40.04C116.442 37.7256 119.115 36.5684 122.602 36.5684C126.088 36.5684 128.754 37.7183 130.6 40.0181C132.445 42.3032 133.39 45.5918 133.434 49.8838V55.7725ZM127.084 49.3125C127.084 46.6611 126.718 44.7349 125.985 43.5337C125.268 42.3179 124.14 41.71 122.602 41.71C121.107 41.71 120.001 42.2886 119.284 43.4458C118.581 44.5884 118.207 46.3828 118.163 48.8291V56.6074C118.163 59.2148 118.515 61.1558 119.218 62.4302C119.936 63.6899 121.078 64.3198 122.646 64.3198C124.198 64.3198 125.319 63.7119 126.007 62.4961C126.696 61.2803 127.055 59.4199 127.084 56.915V49.3125ZM159.274 55.7725C159.274 60.1963 158.358 63.5801 156.527 65.9238C154.696 68.2676 152.016 69.4395 148.485 69.4395C144.999 69.4395 142.333 68.2896 140.487 65.9897C138.642 63.6899 137.697 60.394 137.653 56.1021V50.2134C137.653 45.7456 138.576 42.3545 140.421 40.04C142.282 37.7256 144.955 36.5684 148.441 36.5684C151.928 36.5684 154.594 37.7183 156.439 40.0181C158.285 42.3032 159.23 45.5918 159.274 49.8838V55.7725ZM152.924 49.3125C152.924 46.6611 152.558 44.7349 151.825 43.5337C151.107 42.3179 149.979 41.71 148.441 41.71C146.947 41.71 145.841 42.2886 145.124 43.4458C144.42 44.5884 144.047 46.3828 144.003 48.8291V56.6074C144.003 59.2148 144.354 61.1558 145.058 62.4302C145.775 63.6899 146.918 64.3198 148.485 64.3198C150.038 64.3198 151.159 63.7119 151.847 62.4961C152.536 61.2803 152.895 59.4199 152.924 56.915V49.3125ZM179.206 59.0391H175.14V69H171.741V59.0391H167.745V56.3203H179.206V59.0391ZM189.554 59.0625H184.304V69H180.917V56.3203H189.554V59.0625Z" fill="white"/>
<defs>
<linearGradient id="paint0_linear" x1="102" y1="0" x2="102" y2="82" gradientUnits="userSpaceOnUse">
<stop stop-color="#FF2F34"/>
<stop offset="1" stop-color="#F25D03"/>
</linearGradient>
</defs>
</svg>
