<svg width="41" height="41" viewBox="0 0 41 41" fill="none" xmlns="http://www.w3.org/2000/svg">
<path fill-rule="evenodd" clip-rule="evenodd" d="M2.26523 38.8231C2.27575 38.3502 2.6545 37.2108 2.80031 36.6988L4.53059 30.4514C4.53059 30.2118 3.42836 28.1381 3.10856 27.3429C0.669339 21.2792 1.79871 14.3505 5.54232 9.30303C7.05472 7.26386 9.47096 5.12873 11.7519 3.98924C18.4885 0.623984 26.4216 1.25372 32.0772 5.85948L33.3465 6.95392C33.9696 7.43473 34.0149 7.69506 34.4463 8.11939C37.132 10.7614 39.416 16.6311 39.1368 20.6492C38.99 22.7631 39.1212 22.6302 38.6505 24.7815C37.9612 27.9335 36.5951 30.213 34.8242 32.4786C33.8672 33.703 32.4137 34.9066 31.1645 35.8116C25.9435 39.5939 17.8245 40.4696 11.5049 36.8702C10.8879 36.5189 10.3666 36.7979 9.67183 36.9716L2.26523 38.8231ZM0 19.8145C0 23.1237 0.364338 25.6552 1.67536 28.579C2.7537 30.9833 2.90159 29.6678 1.95815 32.902C1.73456 33.6685 1.51942 34.5172 1.29232 35.2894C1.09418 35.963 0 39.6816 0 40.1034C0 41.6734 2.41585 40.6579 3.21035 40.4575L10.4039 38.6804C11.2329 38.4621 11.1061 38.7293 12.4108 39.3144C17.5391 41.6142 24.1679 41.5822 29.1204 39.0859C29.6977 38.7949 30.2104 38.5766 30.7486 38.2519C32.7677 37.0337 34.668 35.5531 36.1604 33.7162C38.9488 30.2843 40.9717 25.8513 40.9717 21.1933C40.9717 17.6205 40.5108 14.7323 39.0679 11.8695C38.4772 10.6979 38.0152 9.768 37.2716 8.7412C35.168 5.83689 32.5032 3.43221 29.1952 1.94578C24.516 -0.15689 20.4404 -0.481364 15.4702 0.616323C9.81024 1.86631 4.3192 6.47273 1.92764 11.7947C0.822421 14.2542 0 16.9814 0 19.8145Z" fill="white"/>
<path fill-rule="evenodd" clip-rule="evenodd" d="M14.281 18.7312C14.281 19.987 16.9657 22.9703 17.728 23.5573C18.7962 24.3801 18.8823 24.5103 20.1474 25.2746C20.58 25.5361 22.5445 26.5119 23.0466 26.5119C23.8981 26.5119 24.3348 25.851 24.7504 25.3595C25.2059 24.8209 25.6709 24.3785 26.0013 23.7541L30.2364 25.724C30.2364 27.1191 29.8555 27.7637 29.0427 28.3715C26.9507 29.9355 25.0194 29.3879 22.8611 28.6672L20.3551 27.6275C18.1744 26.3982 17.838 25.9962 16.1813 24.6115C15.5343 24.0706 15.0417 23.4028 14.4516 22.7956L12.9015 20.8002C11.7779 19.2072 10.7354 17.7598 10.7354 15.3825C10.7354 14.218 11.1377 13.3635 11.6883 12.6913C12.6279 11.544 12.357 11.6398 14.281 11.6398L15.4214 14.4391C15.9057 15.5921 16.1576 15.7858 15.9015 16.3055C15.6659 16.7838 15.0625 17.3411 14.7011 17.7724C14.5618 17.9388 14.281 18.4882 14.281 18.7312ZM8.86407 15.7765C8.86407 17.9911 10.059 19.9396 11.1689 21.5478C11.4569 21.965 11.6998 22.3059 12.0022 22.6844L13.9117 24.9114C15.3004 26.2955 16.6241 27.5537 18.3236 28.5757C18.7855 28.8534 19.1458 29.0426 19.6651 29.3024C23.0391 30.9901 27.0271 32.3879 30.3053 29.7325C30.9334 29.2237 31.2994 28.8842 31.618 28.0906C32.0909 26.9128 32.6204 24.9158 31.1585 24.1124C30.8846 23.9616 30.6021 23.888 30.3334 23.7556C30.0419 23.6121 29.8027 23.4798 29.4825 23.326C29.1789 23.1804 28.9329 23.1026 28.6591 22.9677C28.367 22.8238 28.126 22.6992 27.8077 22.5387C25.4854 21.3678 25.2374 21.8156 23.6795 23.7961C23.3878 24.1668 23.2624 24.2326 23.0466 24.6406C21.5532 23.8503 20.6756 23.72 19.0833 22.3005C18.3084 21.6097 16.4893 19.7229 16.2508 18.8296L17.2663 17.5799C18.5328 15.8749 17.6139 14.9809 16.5333 12.3423C15.6282 10.1324 15.5088 9.76855 13.2961 9.76855C11.6282 9.76855 10.8087 10.7815 10.1041 11.7966C9.41045 12.7958 8.86407 14.1336 8.86407 15.7765Z" fill="white"/>
</svg>
