<svg width="19" height="19" viewBox="0 0 19 19" fill="none" xmlns="http://www.w3.org/2000/svg">
<path d="M1.04974 17.9912L1.05474 17.9913L1.06867 17.9916L4.48328 17.1381C4.54511 17.1226 4.604 17.1053 4.66071 17.0887C4.67794 17.0837 4.69496 17.0787 4.71181 17.0738C4.78418 17.0529 4.85325 17.0344 4.92112 17.0234C5.05667 17.0015 5.18734 17.0098 5.32908 17.0906C8.25946 18.7596 12.0241 18.3535 14.445 16.5997C15.024 16.1802 15.698 15.6221 16.142 15.0541C16.9629 14.0039 17.5965 12.9468 17.9161 11.4852C18.0787 10.7419 18.0864 10.5864 18.1079 10.1502C18.1153 10.001 18.1242 9.81901 18.1416 9.56947C18.2063 8.63749 17.9738 7.49121 17.5697 6.42498C17.1655 5.35876 16.5894 4.37194 15.9664 3.75908C15.889 3.68288 15.8385 3.61824 15.7887 3.55434C15.7744 3.53601 15.7601 3.51774 15.7453 3.49928C15.6788 3.41646 15.6011 3.33032 15.4564 3.21868C15.4564 3.21865 15.4563 3.21862 15.4563 3.21859L14.8683 2.71158L14.8682 2.71149C12.2457 0.575765 8.56721 0.283891 5.44377 1.8442C4.38596 2.37265 3.26565 3.36265 2.56438 4.30818C0.828559 6.64857 0.304855 9.86123 1.43591 12.673C1.50023 12.8329 1.63272 13.1042 1.76208 13.3691C1.78192 13.4097 1.80169 13.4502 1.82113 13.4901C1.89424 13.6402 1.96269 13.7822 2.01286 13.8936C2.03794 13.9493 2.05843 13.9972 2.07263 14.0347C2.07973 14.0535 2.08524 14.0695 2.08896 14.0826C2.09259 14.0953 2.09441 14.1047 2.09453 14.1109L1.2929 17.0054C1.29289 17.0054 1.29289 17.0054 1.29289 17.0054C1.27897 17.0543 1.26047 17.1155 1.23981 17.1839C1.23541 17.1984 1.23092 17.2133 1.22635 17.2284C1.20032 17.3147 1.17188 17.4098 1.1454 17.5044C1.0925 17.6933 1.04719 17.8808 1.04474 17.9911L1.04974 17.9912ZM1.48652 18.7438L1.4865 18.7438L4.82131 17.9251L4.82011 17.9202L4.82008 17.9202C4.82007 17.9202 4.82005 17.9202 4.82003 17.9202L1.48652 18.7438Z" fill="url(#paint0_linear)" stroke="url(#paint1_linear)" stroke-width="0.01"/>
<defs>
<linearGradient id="paint0_linear" x1="9.49345" y1="0" x2="9.49345" y2="19" gradientUnits="userSpaceOnUse">
<stop stop-color="#FF2F34"/>
<stop offset="1" stop-color="#F25D03"/>
</linearGradient>
<linearGradient id="paint1_linear" x1="9.49345" y1="0" x2="9.49345" y2="19" gradientUnits="userSpaceOnUse">
<stop stop-color="#FF2F34"/>
<stop offset="1" stop-color="#F25D03"/>
</linearGradient>
</defs>
</svg>
